<svg width="300" height="60" viewBox="0 0 300 60" fill="none" xmlns="http://www.w3.org/2000/svg">
<g clip-path="url(#clip0_273_3655)">
<path d="M101.554 30.2055C101.554 41.9248 98.9189 45.3834 89.1687 45.3834C79.4185 45.3834 76.7839 41.9248 76.7839 30.2055C76.7839 18.4862 79.4185 14.9072 89.1687 14.9072C98.9189 14.9072 101.554 18.3959 101.554 30.2055ZM82.8615 30.2055C82.8615 37.7443 83.8994 40.0601 89.1687 40.0601C94.438 40.0601 95.4759 37.7243 95.4759 30.2055C95.4759 22.6867 94.438 20.2305 89.1687 20.2305C83.8994 20.2305 82.8615 22.5964 82.8615 30.2055Z" fill="white"/>
<path d="M124.557 32.5715V44.5715C124.557 44.9925 124.327 45.193 123.948 45.193H119.437C119.058 45.193 118.868 45.0025 118.868 44.5715V34.0451C118.868 28.4913 118.289 28.2206 114.777 28.2206H111.294V44.5614C111.294 44.9825 111.104 45.183 110.715 45.183H106.164C105.785 45.183 105.595 44.9925 105.595 44.5614V24.5013C105.595 24.0301 105.785 24 106.164 23.9198C108.719 23.3384 112.431 23.2582 115.296 23.2582C122.631 23.2582 124.537 24.6517 124.537 32.5715H124.557Z" fill="white"/>
<path d="M134.077 15.1378C134.457 15.1378 134.656 15.3283 134.656 15.7193V44.5614C134.656 44.9824 134.467 45.1829 134.077 45.1829H129.567C129.187 45.1829 128.998 44.9925 128.998 44.5614V15.7193C128.998 15.3283 129.187 15.1378 129.567 15.1378H134.077Z" fill="white"/>
<path d="M145.384 17.3935C145.384 19.3685 144.197 20.5414 142.101 20.5414C140.005 20.5414 138.738 19.3785 138.738 17.3935C138.738 15.4086 139.965 14.2858 142.101 14.2858C144.237 14.2858 145.384 15.4086 145.384 17.3935ZM144.317 23.4487C144.696 23.4487 144.885 23.6391 144.885 24.0301V44.5715C144.885 44.9925 144.696 45.193 144.317 45.193H139.806C139.427 45.193 139.237 45.0026 139.237 44.5715V24.0301C139.237 23.6391 139.427 23.4487 139.806 23.4487H144.317Z" fill="white"/>
<path d="M168.388 32.5715V44.5715C168.388 44.9925 168.158 45.193 167.779 45.193H163.268C162.889 45.193 162.699 45.0025 162.699 44.5715V34.0451C162.699 28.4913 162.13 28.2206 158.607 28.2206H155.125V44.5614C155.125 44.9825 154.935 45.183 154.556 45.183H150.005C149.626 45.183 149.436 44.9925 149.436 44.5614V24.5013C149.436 24.0301 149.626 24 150.005 23.9198C152.56 23.3384 156.272 23.2582 159.136 23.2582C166.472 23.2582 168.378 24.6517 168.378 32.5715H168.388Z" fill="white"/>
<path d="M191.171 34.0451V35.2481C191.171 36.0301 190.942 36.3008 189.944 36.3008H177.938C178.018 39.7895 178.926 40.4211 182.259 40.4211H189.026C189.405 40.4211 189.604 40.6115 189.604 41.0025V44.2306C189.604 44.6516 189.415 44.812 189.066 44.8521C187.04 45.2732 184.285 45.3935 181.77 45.3935C174.046 45.3935 172.18 43.188 172.18 34.3358C172.18 25.4837 174.056 23.2782 181.77 23.2782C189.485 23.2782 191.131 25.4135 191.171 34.0752V34.0451ZM177.908 32.5213H185.473C185.433 29.1028 184.555 28.2105 181.77 28.2105C178.986 28.2105 177.948 29.1028 177.908 32.5213Z" fill="white"/>
<path d="M216.999 23.2581C216.999 27.4586 215.811 29.4736 212.678 30.0551V30.1754C216.5 30.6466 217.647 33.0125 217.647 37.1628C217.647 43.4887 214.474 45.3934 207.328 45.3934C204.195 45.3934 199.115 45.2731 195.752 45.0024C195.293 44.9623 195.173 44.842 195.173 44.4611V15.8796C195.173 15.4586 195.283 15.3784 195.752 15.3383C199.115 15.0275 203.287 14.9172 206.41 14.9172C213.825 14.9172 216.999 17.0125 216.999 23.2681V23.2581ZM201.181 20.2305V27.9498H205.083C209.364 27.9498 210.931 27.4486 210.931 24.1904C210.931 20.9323 209.404 20.2305 205.812 20.2305H201.191H201.181ZM201.181 32.3408V40.0601H206.909C210.193 40.0601 211.57 39.2781 211.57 36.3308C211.57 33.1528 210.003 32.3308 206.939 32.3308H201.171L201.181 32.3408Z" fill="#B8C2D8"/>
<path d="M240.351 34.3158C240.351 43.168 238.555 45.3735 230.601 45.3735C222.647 45.3735 220.851 43.168 220.851 34.3158C220.851 25.4637 222.687 23.2582 230.601 23.2582C238.515 23.2582 240.351 25.4336 240.351 34.3158ZM226.559 34.3158C226.559 39.2081 227.138 40.4111 230.611 40.4111C234.084 40.4111 234.703 39.2081 234.703 34.3158C234.703 29.4236 234.124 28.2206 230.611 28.2206C227.098 28.2206 226.559 29.4236 226.559 34.3158Z" fill="#B8C2D8"/>
<path d="M260.211 23.4486C260.63 23.4486 260.86 23.6391 260.86 24.0301V26.6667C260.86 26.9774 260.75 27.1679 260.59 27.4085L251.189 40.2206H260.7C261.119 40.2206 261.349 40.411 261.349 40.802V44.5614C261.349 44.9825 261.119 45.183 260.7 45.183H243.655C243.196 45.183 242.966 44.9925 242.966 44.5614V42.0351C242.966 41.7644 243.046 41.5639 243.235 41.2932L252.946 28.2907H244.074C243.615 28.2907 243.425 28.1003 243.425 27.7093V24.0201C243.425 23.6291 243.615 23.4386 244.074 23.4386H260.201L260.211 23.4486Z" fill="#B8C2D8"/>
<path d="M283.533 34.3158C283.533 43.168 281.737 45.3735 273.783 45.3735C265.829 45.3735 264.033 43.168 264.033 34.3158C264.033 25.4637 265.869 23.2582 273.783 23.2582C281.697 23.2582 283.533 25.4336 283.533 34.3158ZM269.742 34.3158C269.742 39.2081 270.31 40.4111 273.793 40.4111C277.276 40.4111 277.885 39.2081 277.885 34.3158C277.885 29.4236 277.306 28.2206 273.793 28.2206C270.28 28.2206 269.742 29.4236 269.742 34.3158Z" fill="#B8C2D8"/>
<path d="M299.391 23.6792C299.81 23.7995 300 23.9499 300 24.4612V27.6391C300 28.0301 299.77 28.2206 299.351 28.2206H295.759C293.773 28.2206 293.084 28.5314 293.084 30.1955V44.5615C293.084 44.9825 292.894 45.183 292.515 45.183H287.964C287.585 45.183 287.396 44.9925 287.396 44.5615V28.7219C287.396 23.8296 290.829 23.2482 294.312 23.2482C295.419 23.2482 298.054 23.3584 299.391 23.6692H299.401L299.391 23.6792Z" fill="#B8C2D8"/>
<path d="M42.6633 0H17.0653C7.6404 0 0 7.67512 0 17.1429V42.8571C0 52.3249 7.6404 60 17.0653 60H42.6633C52.0882 60 59.7286 52.3249 59.7286 42.8571V17.1429C59.7286 7.67512 52.0882 0 42.6633 0Z" fill="white"/>
<mask id="mask0_273_3655" style="mask-type:luminance" maskUnits="userSpaceOnUse" x="0" y="0" width="60" height="60">
<path d="M42.6633 0H17.0653C7.6404 0 0 7.67512 0 17.1429V42.8571C0 52.3249 7.6404 60 17.0653 60H42.6633C52.0882 60 59.7286 52.3249 59.7286 42.8571V17.1429C59.7286 7.67512 52.0882 0 42.6633 0Z" fill="white"/>
</mask>
<g mask="url(#mask0_273_3655)">
<path d="M59.7286 0H0V60H59.7286V0Z" fill="white"/>
</g>
<g filter="url(#filter0_ddddd_273_3655)">
<path fill-rule="evenodd" clip-rule="evenodd" d="M47.683 22.8171C46.8148 22.406 45.0484 21.7845 41.7351 21.3033C40.7372 21.1529 39.5995 21.0226 38.2921 20.9123C35.6475 14.0652 33.8911 13.0627 33.8911 13.0627C32.8931 12.0502 31.456 11.4186 29.8493 11.4186C27.9432 11.4186 26.2666 12.3108 25.2886 13.6742C24.3006 14.2958 21.626 20.5815 21.4963 20.9023C20.149 21.0326 18.9814 21.173 17.9535 21.3233C14.6502 21.8146 12.8938 22.4461 12.0255 22.8772C11.5765 23.0978 11.317 23.5489 11.3868 24.0201C11.6563 25.7845 12.3648 30.406 12.7541 32.1404C12.9636 33.0928 13.4427 34.6266 13.7321 35.569C13.752 35.6191 13.772 35.6692 13.7919 35.7193C15.6182 42.2958 22.125 47.1579 29.8593 47.1579C37.5935 47.1579 44.1103 42.2857 45.9266 35.6893C45.9566 35.6291 45.9765 35.569 46.0064 35.5088C46.2959 34.5965 46.7649 33.1028 46.9845 32.1604C47.3836 30.4161 48.0722 25.7644 48.3417 23.99C48.4116 23.5188 48.1521 23.0677 47.693 22.8472L47.683 22.8171ZM29.8593 20.5915C28.1527 20.5915 26.5859 20.6216 25.1688 20.6817C25.1688 20.6817 27.2346 15.7695 28.0829 15.3183C28.4821 14.8171 29.1308 14.4762 29.8593 14.4762C30.468 14.4762 31.0169 14.7068 31.4061 15.0677C31.486 15.0978 32.6137 15.589 34.5897 20.6817C33.1626 20.6216 31.5858 20.5915 29.8493 20.5915H29.8593ZM34.8491 25.7043C34.4599 25.7043 34.1406 25.3835 34.1406 24.9925V22.1354C34.1406 21.7444 34.4599 21.4236 34.8491 21.4236H37.6933C38.0826 21.4236 38.4019 21.7444 38.4019 22.1354V24.9925C38.4019 25.3835 38.0826 25.7043 37.6933 25.7043H34.8491ZM21.3366 24.9925C21.3366 25.3835 21.656 25.7043 22.0452 25.7043H24.8894C25.2786 25.7043 25.5979 25.3835 25.5979 24.9925V22.1354C25.5979 21.7444 25.2786 21.4236 24.8894 21.4236H22.0452C21.656 21.4236 21.3366 21.7444 21.3366 22.1354V24.9925Z" fill="#596ACA"/>
</g>
</g>
<defs>
<filter id="filter0_ddddd_273_3655" x="8.37555" y="10.4186" width="42.9774" height="47.7394" filterUnits="userSpaceOnUse" color-interpolation-filters="sRGB">
<feFlood flood-opacity="0" result="BackgroundImageFix"/>
<feColorMatrix in="SourceAlpha" type="matrix" values="0 0 0 0 0 0 0 0 0 0 0 0 0 0 0 0 0 0 127 0" result="hardAlpha"/>
<feOffset/>
<feColorMatrix type="matrix" values="0 0 0 0 0.180392 0 0 0 0 0.25098 0 0 0 0 0.6 0 0 0 0.24 0"/>
<feBlend mode="normal" in2="BackgroundImageFix" result="effect1_dropShadow_273_3655"/>
<feColorMatrix in="SourceAlpha" type="matrix" values="0 0 0 0 0 0 0 0 0 0 0 0 0 0 0 0 0 0 127 0" result="hardAlpha"/>
<feOffset/>
<feGaussianBlur stdDeviation="0.5"/>
<feColorMatrix type="matrix" values="0 0 0 0 0.180392 0 0 0 0 0.25098 0 0 0 0 0.6 0 0 0 0.24 0"/>
<feBlend mode="normal" in2="effect1_dropShadow_273_3655" result="effect2_dropShadow_273_3655"/>
<feColorMatrix in="SourceAlpha" type="matrix" values="0 0 0 0 0 0 0 0 0 0 0 0 0 0 0 0 0 0 127 0" result="hardAlpha"/>
<feOffset dy="2"/>
<feGaussianBlur stdDeviation="1"/>
<feColorMatrix type="matrix" values="0 0 0 0 0.180392 0 0 0 0 0.25098 0 0 0 0 0.6 0 0 0 0.2 0"/>
<feBlend mode="normal" in2="effect2_dropShadow_273_3655" result="effect3_dropShadow_273_3655"/>
<feColorMatrix in="SourceAlpha" type="matrix" values="0 0 0 0 0 0 0 0 0 0 0 0 0 0 0 0 0 0 127 0" result="hardAlpha"/>
<feOffset dy="4"/>
<feGaussianBlur stdDeviation="1.5"/>
<feColorMatrix type="matrix" values="0 0 0 0 0.180392 0 0 0 0 0.25098 0 0 0 0 0.6 0 0 0 0.12 0"/>
<feBlend mode="normal" in2="effect3_dropShadow_273_3655" result="effect4_dropShadow_273_3655"/>
<feColorMatrix in="SourceAlpha" type="matrix" values="0 0 0 0 0 0 0 0 0 0 0 0 0 0 0 0 0 0 127 0" result="hardAlpha"/>
<feOffset dy="8"/>
<feGaussianBlur stdDeviation="1.5"/>
<feColorMatrix type="matrix" values="0 0 0 0 0.180392 0 0 0 0 0.25098 0 0 0 0 0.6 0 0 0 0.04 0"/>
<feBlend mode="normal" in2="effect4_dropShadow_273_3655" result="effect5_dropShadow_273_3655"/>
<feBlend mode="normal" in="SourceGraphic" in2="effect5_dropShadow_273_3655" result="shape"/>
</filter>
<clipPath id="clip0_273_3655">
<rect width="300" height="60" fill="white"/>
</clipPath>
</defs>
</svg>
