<svg width="160" height="36" viewBox="0 0 160 36" fill="none" xmlns="http://www.w3.org/2000/svg">
<path d="M25.6555 11.4058L20.8203 16.2872L22.6912 18.1781L27.5264 13.2966L25.6534 11.4058H25.6555Z" fill="#4460EF"/>
<path d="M16.132 21.03L11.2969 25.913L13.1678 27.8024L18.003 22.9193L16.132 21.03Z" fill="#4460EF"/>
<path d="M22.8337 8.19824L18 13.0797L19.8724 14.9706L24.7061 10.0891L22.8358 8.19824H22.8337Z" fill="#4460EF"/>
<path d="M13.0495 18.1802L8.46875 22.8047L10.2412 24.5941L14.8218 19.9696L13.0495 18.1782V18.1802Z" fill="#4460EF"/>
<path d="M10.2412 11.4058L8.46875 13.197L13.0495 17.8216L14.8218 16.0302L10.2412 11.4058Z" fill="#4460EF"/>
<path d="M13.1698 8.19824L11.2969 10.0891L16.132 14.9706L18.003 13.0797L13.1678 8.19824H13.1698Z" fill="#4460EF"/>
<path d="M22.6912 18.1782L20.8203 19.9696L25.6555 24.5941L27.5264 22.8027L22.6912 18.1782Z" fill="#4460EF"/>
<path d="M19.8709 21.0321L18 22.9209L22.8351 27.8024L24.7061 25.9115L19.8709 21.03V21.0321Z" fill="#4460EF"/>
<path d="M24.7089 29.5876L22.8417 27.802L18.003 32.4288L13.1643 27.802L11.2969 29.5876L18.003 36L24.7089 29.5876Z" fill="#282F3F"/>
<path d="M8.47082 13.2419L6.61156 11.4058L0 17.9999L6.61156 24.5939L8.47082 22.7578L3.68207 17.9999L8.47082 13.2419Z" fill="#282F3F"/>
<path d="M29.3762 11.4058L27.5312 13.2419L32.3121 17.9999L27.5312 22.7578L29.3762 24.5939L36.0021 17.9999L29.3762 11.4058Z" fill="#282F3F"/>
<path d="M22.842 8.19807L24.7089 6.39869L18.002 0L11.2969 6.39869L13.164 8.19807L18.002 3.58115L22.84 8.19807H22.842Z" fill="#282F3F"/>
<path d="M57.79 12.12L52.354 18.294L52.156 18.096L49.186 21.462L48.808 19.158L54.91 12.12H57.79ZM50.032 12.12V24H47.548V12.12H50.032ZM53.038 16.224L57.934 24H55.09L51.13 17.61L53.038 16.224ZM64.4846 18.258C64.4846 17.742 64.3346 17.34 64.0346 17.052C63.7466 16.764 63.3626 16.62 62.8826 16.62C62.4386 16.62 62.0486 16.734 61.7126 16.962C61.3766 17.19 61.1306 17.568 60.9746 18.096L58.8686 17.448C59.0726 16.656 59.5166 16.02 60.2006 15.54C60.8966 15.06 61.8266 14.82 62.9906 14.82C63.7826 14.82 64.4726 14.946 65.0606 15.198C65.6486 15.438 66.1046 15.804 66.4286 16.296C66.7646 16.788 66.9326 17.406 66.9326 18.15V21.804C66.9326 22.26 67.1486 22.488 67.5806 22.488C67.7846 22.488 67.9766 22.458 68.1566 22.398L68.0126 23.928C67.7006 24.084 67.3106 24.162 66.8426 24.162C66.4226 24.162 66.0446 24.09 65.7086 23.946C65.3726 23.802 65.1086 23.586 64.9166 23.298C64.7246 22.998 64.6286 22.626 64.6286 22.182V22.11L65.0606 22.038C64.9886 22.494 64.7906 22.884 64.4666 23.208C64.1426 23.52 63.7466 23.76 63.2786 23.928C62.8226 24.096 62.3486 24.18 61.8566 24.18C61.2446 24.18 60.7166 24.09 60.2726 23.91C59.8286 23.718 59.4866 23.442 59.2466 23.082C59.0066 22.722 58.8866 22.278 58.8866 21.75C58.8866 21.078 59.1026 20.532 59.5346 20.112C59.9666 19.68 60.5846 19.386 61.3886 19.23L64.7726 18.546L64.7546 20.076L62.5946 20.508C62.1866 20.592 61.8746 20.706 61.6586 20.85C61.4546 20.982 61.3526 21.204 61.3526 21.516C61.3526 21.816 61.4606 22.044 61.6766 22.2C61.9046 22.356 62.1746 22.434 62.4866 22.434C62.7386 22.434 62.9846 22.404 63.2246 22.344C63.4646 22.284 63.6806 22.188 63.8726 22.056C64.0646 21.924 64.2146 21.744 64.3226 21.516C64.4306 21.288 64.4846 21.012 64.4846 20.688V18.258ZM73.2905 24.18C72.3785 24.18 71.5445 24.018 70.7885 23.694C70.0445 23.37 69.4385 22.914 68.9705 22.326L70.3925 20.886C70.6805 21.318 71.0645 21.672 71.5445 21.948C72.0245 22.224 72.5945 22.362 73.2545 22.362C73.7225 22.362 74.0945 22.296 74.3705 22.164C74.6585 22.02 74.8025 21.798 74.8025 21.498C74.8025 21.306 74.7365 21.144 74.6045 21.012C74.4725 20.868 74.2085 20.754 73.8125 20.67L72.2285 20.346C71.1845 20.13 70.4405 19.806 69.9965 19.374C69.5645 18.93 69.3485 18.36 69.3485 17.664C69.3485 17.172 69.4925 16.71 69.7805 16.278C70.0805 15.846 70.5245 15.498 71.1125 15.234C71.7005 14.958 72.4325 14.82 73.3085 14.82C74.2085 14.82 74.9885 14.964 75.6485 15.252C76.3205 15.528 76.8485 15.942 77.2325 16.494L75.7565 17.934C75.4925 17.514 75.1445 17.196 74.7125 16.98C74.2925 16.752 73.8485 16.638 73.3805 16.638C73.0445 16.638 72.7565 16.674 72.5165 16.746C72.2765 16.818 72.0965 16.92 71.9765 17.052C71.8565 17.172 71.7965 17.328 71.7965 17.52C71.7965 17.712 71.8805 17.88 72.0485 18.024C72.2165 18.156 72.5225 18.27 72.9665 18.366L74.8025 18.744C75.6905 18.924 76.3265 19.23 76.7105 19.662C77.0945 20.082 77.2865 20.592 77.2865 21.192C77.2865 21.768 77.1305 22.284 76.8185 22.74C76.5185 23.184 76.0685 23.538 75.4685 23.802C74.8805 24.054 74.1545 24.18 73.2905 24.18ZM84.545 24.18C83.993 24.18 83.489 24.066 83.033 23.838C82.589 23.598 82.217 23.274 81.917 22.866C81.629 22.446 81.431 21.978 81.323 21.462L81.575 21.138L81.431 24H79.253V11.058H81.719V17.538L81.485 17.16C81.677 16.488 82.043 15.93 82.583 15.486C83.123 15.042 83.801 14.82 84.617 14.82C85.325 14.82 85.967 15.006 86.543 15.378C87.119 15.75 87.569 16.284 87.893 16.98C88.229 17.676 88.397 18.522 88.397 19.518C88.397 20.49 88.229 21.324 87.893 22.02C87.569 22.716 87.113 23.25 86.525 23.622C85.949 23.994 85.289 24.18 84.545 24.18ZM83.807 22.29C84.467 22.29 84.983 22.056 85.355 21.588C85.739 21.108 85.931 20.412 85.931 19.5C85.931 18.588 85.745 17.898 85.373 17.43C85.001 16.95 84.485 16.71 83.825 16.71C83.393 16.71 83.021 16.824 82.709 17.052C82.397 17.28 82.151 17.604 81.971 18.024C81.803 18.444 81.719 18.942 81.719 19.518C81.719 20.106 81.803 20.61 81.971 21.03C82.151 21.438 82.397 21.75 82.709 21.966C83.033 22.182 83.399 22.29 83.807 22.29ZM91.7802 13.704C91.2642 13.704 90.8802 13.596 90.6282 13.38C90.3762 13.152 90.2502 12.822 90.2502 12.39C90.2502 11.946 90.3762 11.616 90.6282 11.4C90.8802 11.172 91.2642 11.058 91.7802 11.058C92.2962 11.058 92.6802 11.172 92.9322 11.4C93.1842 11.616 93.3102 11.946 93.3102 12.39C93.3102 12.822 93.1842 13.152 92.9322 13.38C92.6802 13.596 92.2962 13.704 91.7802 13.704ZM93.0042 15V24H90.5382V15H93.0042ZM104.078 15L100.442 24.558C100.154 25.374 99.8303 26.022 99.4703 26.502C99.1223 26.982 98.7143 27.33 98.2463 27.546C97.7903 27.762 97.2443 27.87 96.6083 27.87C96.1403 27.87 95.7083 27.81 95.3123 27.69C94.9283 27.582 94.5923 27.438 94.3043 27.258L94.8263 25.476C95.0543 25.656 95.2943 25.782 95.5463 25.854C95.7983 25.938 96.0863 25.98 96.4103 25.98C96.7463 25.98 97.0343 25.908 97.2743 25.764C97.5263 25.62 97.7363 25.332 97.9043 24.9L98.2103 24.126L97.2203 21.786L94.4663 15H97.2023L98.9123 20.4L99.3803 22.2L99.9383 20.292L101.576 15H104.078ZM113.5 12.246V21.066C113.5 21.498 113.608 21.816 113.824 22.02C114.052 22.212 114.358 22.308 114.742 22.308C115.042 22.308 115.306 22.266 115.534 22.182C115.762 22.086 115.966 21.96 116.146 21.804L116.542 23.442C116.254 23.67 115.894 23.85 115.462 23.982C115.03 24.114 114.574 24.18 114.094 24.18C113.494 24.18 112.96 24.09 112.492 23.91C112.036 23.73 111.676 23.442 111.412 23.046C111.16 22.65 111.034 22.122 111.034 21.462V12.93L113.5 12.246ZM116.38 15V16.836H109.378V15H116.38ZM123.266 18.258C123.266 17.742 123.116 17.34 122.816 17.052C122.528 16.764 122.144 16.62 121.664 16.62C121.22 16.62 120.83 16.734 120.494 16.962C120.158 17.19 119.912 17.568 119.756 18.096L117.65 17.448C117.854 16.656 118.298 16.02 118.982 15.54C119.678 15.06 120.608 14.82 121.772 14.82C122.564 14.82 123.254 14.946 123.842 15.198C124.43 15.438 124.886 15.804 125.21 16.296C125.546 16.788 125.714 17.406 125.714 18.15V21.804C125.714 22.26 125.93 22.488 126.362 22.488C126.566 22.488 126.758 22.458 126.938 22.398L126.794 23.928C126.482 24.084 126.092 24.162 125.624 24.162C125.204 24.162 124.826 24.09 124.49 23.946C124.154 23.802 123.89 23.586 123.698 23.298C123.506 22.998 123.41 22.626 123.41 22.182V22.11L123.842 22.038C123.77 22.494 123.572 22.884 123.248 23.208C122.924 23.52 122.528 23.76 122.06 23.928C121.604 24.096 121.13 24.18 120.638 24.18C120.026 24.18 119.498 24.09 119.054 23.91C118.61 23.718 118.268 23.442 118.028 23.082C117.788 22.722 117.668 22.278 117.668 21.75C117.668 21.078 117.884 20.532 118.316 20.112C118.748 19.68 119.366 19.386 120.17 19.23L123.554 18.546L123.536 20.076L121.376 20.508C120.968 20.592 120.656 20.706 120.44 20.85C120.236 20.982 120.134 21.204 120.134 21.516C120.134 21.816 120.242 22.044 120.458 22.2C120.686 22.356 120.956 22.434 121.268 22.434C121.52 22.434 121.766 22.404 122.006 22.344C122.246 22.284 122.462 22.188 122.654 22.056C122.846 21.924 122.996 21.744 123.104 21.516C123.212 21.288 123.266 21.012 123.266 20.688V18.258ZM128.871 11.508C129.255 11.508 129.573 11.604 129.825 11.796C130.077 11.976 130.269 12.222 130.401 12.534C130.533 12.834 130.599 13.17 130.599 13.542C130.599 14.034 130.497 14.508 130.293 14.964C130.101 15.42 129.831 15.828 129.483 16.188C129.135 16.548 128.739 16.83 128.295 17.034L127.233 16.188C127.557 16.056 127.851 15.894 128.115 15.702C128.391 15.51 128.625 15.294 128.817 15.054C129.009 14.814 129.147 14.568 129.231 14.316L129.141 14.262C129.081 14.298 129.009 14.334 128.925 14.37C128.841 14.394 128.721 14.406 128.565 14.406C128.373 14.406 128.181 14.358 127.989 14.262C127.797 14.154 127.635 14.004 127.503 13.812C127.371 13.608 127.305 13.356 127.305 13.056C127.305 12.732 127.377 12.456 127.521 12.228C127.665 12 127.857 11.826 128.097 11.706C128.337 11.574 128.595 11.508 128.871 11.508ZM135.068 11.058V21.228C135.068 21.648 135.14 21.942 135.284 22.11C135.428 22.278 135.668 22.362 136.004 22.362C136.208 22.362 136.376 22.35 136.508 22.326C136.64 22.29 136.808 22.242 137.012 22.182L136.796 23.802C136.592 23.922 136.334 24.012 136.022 24.072C135.722 24.144 135.422 24.18 135.122 24.18C134.246 24.18 133.604 23.97 133.196 23.55C132.8 23.118 132.602 22.434 132.602 21.498V11.058H135.068ZM139.628 13.704C139.112 13.704 138.728 13.596 138.476 13.38C138.224 13.152 138.098 12.822 138.098 12.39C138.098 11.946 138.224 11.616 138.476 11.4C138.728 11.172 139.112 11.058 139.628 11.058C140.144 11.058 140.528 11.172 140.78 11.4C141.032 11.616 141.158 11.946 141.158 12.39C141.158 12.822 141.032 13.152 140.78 13.38C140.528 13.596 140.144 13.704 139.628 13.704ZM140.852 15V24H138.386V15H140.852ZM143.466 24V15H145.68L145.77 16.62C146.07 16.02 146.478 15.57 146.994 15.27C147.522 14.97 148.104 14.82 148.74 14.82C149.388 14.82 149.97 14.97 150.486 15.27C151.014 15.57 151.41 16.014 151.674 16.602C151.866 16.206 152.124 15.876 152.448 15.612C152.772 15.348 153.132 15.15 153.528 15.018C153.924 14.886 154.326 14.82 154.734 14.82C155.322 14.82 155.856 14.94 156.336 15.18C156.828 15.42 157.218 15.78 157.506 16.26C157.794 16.74 157.938 17.352 157.938 18.096V24H155.472V18.582C155.472 17.922 155.328 17.454 155.04 17.178C154.752 16.902 154.38 16.764 153.924 16.764C153.564 16.764 153.228 16.854 152.916 17.034C152.616 17.214 152.376 17.484 152.196 17.844C152.028 18.192 151.944 18.63 151.944 19.158V24H149.478V18.582C149.478 17.922 149.328 17.454 149.028 17.178C148.74 16.902 148.368 16.764 147.912 16.764C147.6 16.764 147.288 16.848 146.976 17.016C146.676 17.184 146.424 17.448 146.22 17.808C146.028 18.168 145.932 18.642 145.932 19.23V24H143.466Z" fill="#282F3F"/>
</svg>
