<svg width="32" height="32" viewBox="0 0 32 32" fill="none" xmlns="http://www.w3.org/2000/svg">
<g filter="url(#filter0_ddddd_273_3633)">
<path fill-rule="evenodd" clip-rule="evenodd" d="M28.5305 8.97476C27.9171 8.68574 26.6763 8.25093 24.3489 7.91415C23.6474 7.8111 22.8441 7.71811 21.928 7.64271C20.0683 2.85232 18.8358 2.14859 18.8358 2.14859C18.1343 1.44234 17.1219 1 15.9967 1C14.6569 1 13.4795 1.62582 12.7917 2.57585C12.0996 3.01299 10.2175 7.41309 10.1237 7.63252L10.1204 7.64019C9.17404 7.72062 8.34872 7.81864 7.62794 7.92671C5.30329 8.27103 4.06806 8.7159 3.45732 9.01247C3.1382 9.16578 2.95663 9.48497 3.0089 9.8117C3.19598 11.0457 3.69942 14.2854 3.96902 15.4943C4.11758 16.1603 4.45046 17.2361 4.65954 17.892C4.67055 17.9272 4.6843 17.9624 4.70356 17.9951C5.99106 22.597 10.5606 26 15.9994 26C21.4383 26 26.0243 22.5869 27.3008 17.9725C27.3228 17.9322 27.3393 17.8895 27.3558 17.8443C27.5622 17.2034 27.8895 16.1578 28.0408 15.4968C28.3187 14.2779 28.8084 11.0181 28.9927 9.77651C29.0395 9.44727 28.8579 9.13059 28.536 8.97728L28.5305 8.97476ZM15.9939 7.42153C14.7917 7.42153 13.694 7.44415 12.6954 7.48437C12.6954 7.48437 14.1452 4.04614 14.7449 3.72695C15.0228 3.37257 15.4795 3.14135 15.9939 3.14135C16.4203 3.14135 16.8055 3.29969 17.0834 3.55605H17.0861C17.1439 3.57616 17.9362 3.91797 19.3282 7.48437C18.3213 7.44415 17.2127 7.42153 15.9939 7.42153ZM19.5 11C19.2239 11 19 10.7761 19 10.5V8.5C19 8.22385 19.2239 8 19.5 8H21.5C21.7761 8 22 8.22385 22 8.5V10.5C22 10.7761 21.7761 11 21.5 11H19.5ZM10 10.5C10 10.7761 10.2239 11 10.5 11H12.5C12.7761 11 13 10.7761 13 10.5V8.5C13 8.22385 12.7761 8 12.5 8H10.5C10.2239 8 10 8.22385 10 8.5V10.5Z" fill="#fff"/>
</g>
<defs>
<filter id="filter0_ddddd_273_3633" x="0" y="0" width="32" height="36" filterUnits="userSpaceOnUse" color-interpolation-filters="sRGB">
<feFlood flood-opacity="0" result="BackgroundImageFix"/>
<feColorMatrix in="SourceAlpha" type="matrix" values="0 0 0 0 0 0 0 0 0 0 0 0 0 0 0 0 0 0 127 0" result="hardAlpha"/>
<feOffset/>
<feColorMatrix type="matrix" values="0 0 0 0 0.0313726 0 0 0 0 0.0745098 0 0 0 0 0.290196 0 0 0 0.16 0"/>
<feBlend mode="normal" in2="BackgroundImageFix" result="effect1_dropShadow_273_3633"/>
<feColorMatrix in="SourceAlpha" type="matrix" values="0 0 0 0 0 0 0 0 0 0 0 0 0 0 0 0 0 0 127 0" result="hardAlpha"/>
<feOffset/>
<feGaussianBlur stdDeviation="0.5"/>
<feColorMatrix type="matrix" values="0 0 0 0 0.0313726 0 0 0 0 0.0745098 0 0 0 0 0.290196 0 0 0 0.16 0"/>
<feBlend mode="normal" in2="effect1_dropShadow_273_3633" result="effect2_dropShadow_273_3633"/>
<feColorMatrix in="SourceAlpha" type="matrix" values="0 0 0 0 0 0 0 0 0 0 0 0 0 0 0 0 0 0 127 0" result="hardAlpha"/>
<feOffset dy="2"/>
<feGaussianBlur stdDeviation="1"/>
<feColorMatrix type="matrix" values="0 0 0 0 0.0313726 0 0 0 0 0.0745098 0 0 0 0 0.290196 0 0 0 0.14 0"/>
<feBlend mode="normal" in2="effect2_dropShadow_273_3633" result="effect3_dropShadow_273_3633"/>
<feColorMatrix in="SourceAlpha" type="matrix" values="0 0 0 0 0 0 0 0 0 0 0 0 0 0 0 0 0 0 127 0" result="hardAlpha"/>
<feOffset dy="4"/>
<feGaussianBlur stdDeviation="1"/>
<feColorMatrix type="matrix" values="0 0 0 0 0.0313726 0 0 0 0 0.0745098 0 0 0 0 0.290196 0 0 0 0.08 0"/>
<feBlend mode="normal" in2="effect3_dropShadow_273_3633" result="effect4_dropShadow_273_3633"/>
<feColorMatrix in="SourceAlpha" type="matrix" values="0 0 0 0 0 0 0 0 0 0 0 0 0 0 0 0 0 0 127 0" result="hardAlpha"/>
<feOffset dy="7"/>
<feGaussianBlur stdDeviation="1.5"/>
<feColorMatrix type="matrix" values="0 0 0 0 0.0313726 0 0 0 0 0.0745098 0 0 0 0 0.290196 0 0 0 0.02 0"/>
<feBlend mode="normal" in2="effect4_dropShadow_273_3633" result="effect5_dropShadow_273_3633"/>
<feBlend mode="normal" in="SourceGraphic" in2="effect5_dropShadow_273_3633" result="shape"/>
</filter>
</defs>
</svg>
