<svg width="106" height="20" fill="none" xmlns="http://www.w3.org/2000/svg"
><path d="M13.363 4.709a4.709 4.709 0 0 0-9.418 0h9.418Z" fill="#6EB974"></path><path d="M.03 4.709h17.278v3.945H.03V4.709Z" fill="#3F6D5B"></path><path d="M3.945 4.709V20H0V4.709h3.945Z" fill="#3F6D5B"></path><path d="M3.945 4.709V20H0V4.709h3.945ZM17.308 4.709V20h-3.945V4.709h3.945Z" fill="#3F6D5B"></path><path d="M.03 16.055h17.278V20H.03v-3.945Z" fill="#3F6D5B"></path><path d="M41.046 19.296h-5.162l-2.95-4.13-3.024 4.13h-5.063l5.444-6.895-5.358-6.907h5.162l2.9 4.055 2.913-4.055h5.076l-5.37 6.796 5.432 7.006ZM51.812 15.695v-2.876c-.598.049-1.245.119-1.941.209-.697.082-1.226.18-1.586.295-.442.139-.782.344-1.02.614-.23.262-.344.61-.344 1.045 0 .287.024.52.074.7.049.18.172.353.368.517.189.164.414.286.676.368.262.074.672.111 1.23.111.442 0 .888-.09 1.339-.27.459-.18.86-.418 1.204-.713Zm0 2.138c-.237.18-.532.398-.884.652a6.442 6.442 0 0 1-.996.602c-.434.197-.885.34-1.352.43-.467.099-.98.148-1.536.148-1.311 0-2.41-.406-3.294-1.217-.885-.811-1.328-1.848-1.328-3.11 0-1.007.226-1.83.676-2.47.451-.64 1.09-1.143 1.918-1.512.82-.368 1.835-.63 3.048-.786 1.212-.156 2.47-.27 3.773-.345v-.073c0-.762-.311-1.287-.934-1.573-.623-.295-1.54-.443-2.753-.443-.73 0-1.508.131-2.335.393-.828.254-1.422.451-1.783.59h-.405V5.79c.467-.123 1.225-.267 2.274-.43a19.705 19.705 0 0 1 3.17-.259c2.516 0 4.331.39 5.445 1.168 1.123.77 1.684 1.983 1.684 3.638v9.39h-4.388v-1.463ZM72.178 19.296H59.211v-2.84l7.276-7.73h-6.98V5.494h12.536v2.79l-7.166 7.718h7.301v3.294ZM89.151 19.296h-4.449V12.45c0-.557-.028-1.11-.086-1.66-.057-.556-.156-.966-.295-1.228a1.467 1.467 0 0 0-.725-.664c-.311-.14-.75-.209-1.315-.209-.402 0-.811.066-1.23.197-.409.13-.855.34-1.339.627v9.783h-4.424V5.494h4.424v1.524c.787-.615 1.54-1.086 2.262-1.414.729-.328 1.536-.491 2.421-.491 1.491 0 2.655.434 3.49 1.302.844.869 1.266 2.168 1.266 3.897v8.984ZM101.59 15.695v-2.876a41.98 41.98 0 0 0-1.942.209c-.697.082-1.225.18-1.586.295-.442.139-.782.344-1.02.614-.23.262-.344.61-.344 1.045 0 .287.025.52.074.7.049.18.172.353.368.517.189.164.414.286.676.368.263.074.672.111 1.23.111.442 0 .888-.09 1.339-.27.459-.18.86-.418 1.205-.713Zm0 2.138c-.238.18-.533.398-.885.652a6.457 6.457 0 0 1-.996.602c-.434.197-.885.34-1.352.43-.467.099-.979.148-1.536.148-1.311 0-2.41-.406-3.294-1.217-.885-.811-1.327-1.848-1.327-3.11 0-1.007.225-1.83.676-2.47.45-.64 1.09-1.143 1.917-1.512.82-.368 1.835-.63 3.048-.786 1.213-.156 2.47-.27 3.773-.345v-.073c0-.762-.311-1.287-.934-1.573-.623-.295-1.54-.443-2.753-.443-.73 0-1.508.131-2.335.393-.828.254-1.422.451-1.782.59h-.406V5.79c.467-.123 1.225-.267 2.274-.43a19.705 19.705 0 0 1 3.17-.259c2.516 0 4.331.39 5.446 1.168 1.122.77 1.683 1.983 1.683 3.638v9.39h-4.387v-1.463Z" fill="#1D1D1D"></path></svg>